<?xml version="1.0" encoding="utf-8"?>
<svg xmlns="http://www.w3.org/2000/svg" xmlns:xlink="http://www.w3.org/1999/xlink" version= "1.1" width="1920px" height="1300px" viewBox="-600 63 1920 1300">
<g id="layer1">
<g style="fill:rgb(0,174,199); fill-opacity:1.0; stroke-linejoin: miter">
<path d="M-600.0009,61.374207C-600.4318,61.374207,-600.84515,61.54539,-601.14984,61.850098C-601.4545,62.154804,-601.6258,62.568077,-601.6258,62.999L-601.6248,1363.0C-601.6248,1363.8973,-600.8974,1364.6248,-599.99994,1364.6248L1320.001,1364.6257C1320.4319,1364.6257,1320.8452,1364.4546,1321.1499,1364.1499C1321.4546,1363.8452,1321.6257,1363.4319,1321.6257,1363.001L1321.6248,63.0C1321.6248,62.102654,1320.8973,61.375206,1320.0,61.375206L-600.0009,61.374207 Z"/>
</g>
</g>
<g id="layer2">
<g style="fill:rgb(34,43,50); fill-opacity:0.5254902; stroke-linejoin: miter">
<path d="M1140.9788,1292.4636L1133.9712,1294.3313Q1111.8286,1296.8398,1051.7783,1298.902Q1021.75323,1299.9331,982.25104,1300.8525Q875.2033,1303.0535,842.42145,1303.3596Q703.4631,1305.0645,670.549,1305.1672Q610.0566,1305.6208,545.29553,1305.8759Q415.77344,1306.386,269.1765,1306.1019Q129.26892,1305.705,14.261505,1304.6282L-41.686005,1304.0474Q-96.07718,1303.4241,-144.24336,1302.6307Q-192.40955,1301.8375,-234.35068,1300.8744Q-421.6306,1296.2141,-389.89603,1291.1881Q-375.9475,1288.6857,-320.83893,1286.5714Q-293.28464,1285.5143,-255.44034,1284.5542Q-242.3397,1284.0026,-119.97443,1281.9141Q83.3869,1278.8308,373.34045,1278.6997Q412.96722,1278.6008,578.6286,1279.2131Q642.99896,1279.5227,701.95746,1280.0168Q819.8741,1281.0049,916.14264,1282.7311Q964.2769,1283.5941,1002.1214,1284.5542Q1027.4746,1284.9736,1092.5017,1287.6528Q1137.3203,1289.8641,1140.9788,1292.4636"/>
</g>
<g style="fill:rgb(60,70,79); fill-opacity:1.0; stroke-linejoin: miter">
<path d="M-279.15118,1211.802L-9.970715,1211.8025L259.20978,1211.803Q259.20978,1254.882,259.20978,1297.9609Q-9.970715,1297.9614,-279.15118,1297.9619Q-279.15118,1254.882,-279.15118,1211.802"/>
</g>
<g style="fill:rgb(0,178,198); fill-opacity:1.0; stroke-linejoin: miter">
<path d="M595.6509,490.4349L719.4336,490.4349L719.4336,590.5514L595.6509,590.5514L595.6509,490.4349 Z M595.6509,490.4349L719.4336,490.4349L719.4336,590.5514L595.6509,590.5514L595.6509,490.4349 Z M595.6509,490.4349L719.4336,490.4349L719.4336,590.5514L595.6509,590.5514L595.6509,490.4349 Z M595.6509,490.4349L719.4336,490.4349L719.4336,590.5514L595.6509,590.5514L595.6509,490.4349 Z"/>
</g>
<g style="fill:rgb(210,210,210); fill-opacity:1.0; stroke-linejoin: miter">
<path d="M566.04205,582.5744L749.05365,582.5744L749.05365,598.5463L566.04205,598.5463L566.04205,582.5744 Z M566.04205,582.5744L749.05365,582.5744L749.05365,598.5463L566.04205,598.5463L566.04205,582.5744 Z M566.04205,582.5744L749.05365,582.5744L749.05365,598.5463L566.04205,598.5463L566.04205,582.5744 Z M566.04205,582.5744L749.05365,582.5744L749.05365,598.5463L566.04205,598.5463L566.04205,582.5744 Z"/>
</g>
<g>
<g style="fill:rgb(244,244,244); fill-opacity:1.0; stroke-linejoin: miter">
<path d="M328.7408,175.24083L986.49585,175.24084L986.49603,613.7454L328.7408,613.74554L328.7408,175.24083 Z M328.7408,175.24083L986.49585,175.24084L986.49603,613.7454L328.7408,613.74554L328.7408,175.24083 Z M328.7408,175.24083L986.49585,175.24084L986.49603,613.7454L328.7408,613.74554L328.7408,175.24083 Z M328.7408,175.24083L986.49585,175.24084L986.49603,613.7454L328.7408,613.74554L328.7408,175.24083 Z"/>
</g>
<g style="fill:rgb(244,244,244); fill-opacity:1.0; stroke-linejoin: miter">
<path d="M328.7408,172.97763L328.7408,172.97763L986.49585,172.97766L988.7591,175.24084L988.7593,613.7454L986.49603,616.0088L328.7408,616.00885L326.4775,613.74554L326.47748,175.24083L328.7408,172.97763 M328.7408,177.50418L331.00406,175.24083L331.0041,613.74554L328.7408,611.4822L986.49603,611.48206L984.23267,613.7454L984.23254,175.24084L986.49585,177.50421L328.7408,177.50418 Z M328.7408,172.97763L328.7408,172.97763L986.49585,172.97766L988.7591,175.24084L988.7593,613.7454L986.49603,616.0088L328.7408,616.00885L326.4775,613.74554L326.47748,175.24083L328.7408,172.97763 M328.7408,177.50418L331.00406,175.24083L331.0041,613.74554L328.7408,611.4822L986.49603,611.48206L984.23267,613.7454L984.23254,175.24084L986.49585,177.50421L328.7408,177.50418 Z M328.7408,172.97763L328.7408,172.97763L986.49585,172.97766L988.7591,175.24084L988.7593,613.7454L986.49603,616.0088L328.7408,616.00885L326.4775,613.74554L326.47748,175.24083L328.7408,172.97763 M328.7408,177.50418L331.00406,175.24083L331.0041,613.74554L328.7408,611.4822L986.49603,611.48206L984.23267,613.7454L984.23254,175.24084L986.49585,177.50421L328.7408,177.50418 Z M328.7408,172.97763L328.7408,172.97763L986.49585,172.97766L988.7591,175.24084L988.7593,613.7454L986.49603,616.0088L328.7408,616.00885L326.4775,613.74554L326.47748,175.24083L328.7408,172.97763 M328.7408,177.50418L331.00406,175.24083L331.0041,613.74554L328.7408,611.4822L986.49603,611.48206L984.23267,613.7454L984.23254,175.24084L986.49585,177.50421L328.7408,177.50418 Z"/>
</g>
</g>
<g style="fill:rgb(0,0,0); fill-opacity:1.0; stroke-linejoin: miter">
<path d="M351.37183,197.86627L963.85736,197.8663L963.85767,513.6627L349.1132,513.66406 Z"/>
</g>
<g style="fill:rgb(0,0,0); fill-opacity:1.0; stroke-linejoin: miter">
<path d="M676.82184,575.02625C676.82184,585.633,668.2234,594.2315,657.6166,594.2315C647.0098,594.2315,638.4113,585.633,638.4113,575.02625C638.4113,564.4195,647.0098,555.821,657.6166,555.821C668.2234,555.821,676.82184,564.4195,676.82184,575.02625 Z"/>
</g>
<g style="fill:rgb(255,255,255); fill-opacity:0.09019608; stroke-linejoin: miter">
<path d="M351.38766,197.86627L349.12436,513.6627L963.8686,197.8663 Z"/>
</g>
<g style="fill:rgb(0,0,0); fill-opacity:0.99607843; stroke-linejoin: miter">
<path d="M159.28925,467.5924L213.6003,401.23956L267.91135,334.88663Q263.87283,331.581,259.8343,328.27515Q205.52385,394.62936,151.21387,460.9826Q155.25163,464.28748,159.28925,467.5924"/>
</g>
<g style="fill:rgb(255,197,171); fill-opacity:1.0; stroke-linejoin: miter">
<path d="M180.06036,434.0085L182.15588,436.29477Q187.74081,444.0215,185.55966,454.69058Q183.33145,465.40436,173.94281,474.08868Q164.63681,482.06,154.42375,482.59482Q151.13626,482.75226,148.09906,482.022L145.16809,481.06128Q142.32196,479.87515,139.98926,477.75443Q133.06934,470.98398,133.9852,460.4726Q134.90091,449.96124,143.23486,440.50162Q151.9286,431.3719,162.31969,429.53983Q172.71106,427.70746,180.06036,434.0085"/>
</g>
<g style="fill:rgb(255,255,255); fill-opacity:1.0; stroke-linejoin: miter">
<path d="M-104.24692,453.1349L-105.33511,454.27097Q-109.05368,458.638,-117.847534,464.43607Q-166.1716,488.9328,-171.66302,496.73166Q-185.41681,509.4632,-188.0264,530.6808Q-192.17697,573.7574,-181.47989,640.1489Q-176.05399,684.44006,-145.90707,692.7145L-142.36948,775.4196L5.3331757,724.54913Q5.117264,698.47797,11.296509,591.2057Q43.74211,616.5274,57.855835,618.3944Q75.76051,622.4245,90.50069,611.5228Q117.41877,596.0791,173.36957,474.18118L136.11362,458.28326L72.71719,556.2851Q61.65909,546.1113,55.804077,536.8742Q29.678146,490.77438,26.704681,489.49887Q17.276825,477.69186,5.2361145,471.11063Q-2.4183807,465.98053,-28.886322,457.73886L-104.24692,453.1349"/>
</g>
<g style="fill:rgb(0,0,0); fill-opacity:1.0; stroke-linejoin: miter">
<path d="M-63.207947,309.76688Q-80.98184,307.39178,-99.418274,317.7924Q-116.526184,327.6688,-120.187836,342.96622Q-124.803894,359.65308,-116.571106,394.80807Q-114.31677,404.08264,-112.234375,409.09308Q-111.33063,411.24246,-110.419495,412.7865Q-106.25665,418.5974,-106.495544,418.98367Q-103.918884,431.2723,-103.328674,431.5707Q-101.27139,435.98782,-96.96713,438.7787L-33.533356,424.0117Q-30.641266,424.74167,-29.208649,423.57477Q-27.18222,422.16705,-25.669373,415.7344Q-24.872314,413.3933,-24.231445,401.40567Q-23.857483,398.52158,-23.138824,396.26105Q-23.271515,395.37433,-17.170029,383.45056Q-15.956528,380.63574,-15.294525,378.10388Q-12.672791,369.30173,-16.581985,355.7729Q-21.981323,337.84045,-30.184357,324.6924Q-36.81201,314.2875,-63.168884,309.7716"/>
</g>
<g style="fill:rgb(255,197,171); fill-opacity:1.0; stroke-linejoin: miter">
<path d="M-64.292175,336.09784Q-73.11813,334.4496,-83.065735,336.5345Q-92.83621,338.737,-96.355865,343.1028Q-98.41928,345.43225,-99.48166,349.442Q-102.87521,366.7688,-102.86798,368.435Q-103.99631,375.89728,-102.77939,397.0664Q-116.38696,391.8151,-115.79263,395.624Q-114.0654,402.72092,-103.34976,413.98642L-99.18259,441.6867L-59.7377,474.20667L-38.956512,456.48227L-39.72049,436.06964Q-33.132477,431.64276,-31.07315,426.111Q-29.184418,421.55576,-27.736725,409.91995Q-24.929443,408.76532,-23.40921,402.8908Q-21.582855,395.3315,-21.557648,390.6236Q-21.442902,386.18918,-26.364105,396.307Q-28.095123,390.5688,-28.52185,385.344Q-28.823547,384.55542,-29.047821,367.29312Q-29.214813,363.45593,-29.597137,360.78088Q-30.355133,355.10303,-32.554535,352.46106Q-33.822327,350.8232,-36.10312,349.49957L-44.41519,345.52695L-54.640533,339.59482Q-59.46869,337.08817,-64.22574,336.11136"/>
</g>
<g style="fill:rgb(255,255,255); fill-opacity:1.0; stroke-linejoin: miter">
<path d="M-99.64865,439.7281L-109.72055,458.76108L-60.37451,749.4674L-0.40046692,727.73425L-8.080612,666.2628Q-23.59732,543.5084,-29.743622,499.958Q-36.065826,454.48962,-38.540497,448.37082Q-39.948242,443.81247,-40.978973,454.72482Q-52.817444,467.30682,-59.444977,469.56735L-99.55435,439.798"/>
</g>
<g style="fill:rgb(0,0,0); fill-opacity:1.0; stroke-linejoin: miter">
<path d="M6.8901367,714.4741C-63.03073,734.6407,-113.43329,728.78046,-145.29987,719.90106C-144.0191,897.3217,-141.03024,1001.5355,-140.97183,1015.2281C-140.81494,1052.0745,-143.0875,1074.2192,-142.88113,1081.7926C-141.43094,1134.9812,-135.4234,1174.5714,-124.34042,1200.5518C-125.4949,1224.3306,-125.01657,1240.3992,-123.489075,1248.8699C-121.41464,1260.3757,-116.28647,1268.9801,-107.009735,1273.605C-82.94992,1285.5997,-67.83612,1283.8119,-63.56305,1268.8052C-62.439728,1264.8601,-63.602234,1258.5917,-65.609924,1250.3179L-78.65933,1205.7843C-77.25479,1188.9714,-75.849884,1177.2472,-75.06369,1170.531C-74.51315,1165.8287,-74.74356,1161.7574,-75.024506,1158.3656C-75.300415,1155.0394,-75.918976,1151.3834,-76.98892,1147.4062L-85.20029,1121.5472C-86.32864,1117.151,-86.98227,1112.3112,-87.11212,1107.0278C-87.22385,1102.4856,-86.65631,1096.7916,-85.45828,1089.9486L-77.67108,1054.0413C-76.47928,1048.0848,-75.50345,1041.9421,-74.62961,1035.6294C-72.93198,1023.3622,-71.315216,1004.1728,-69.89444,978.0447L-66.05185,925.5214C-63.66812,858.8257,-62.423615,978.75574,-61.554993,989.852L-58.909058,1067.6097C-58.75531,1073.7921,-56.360596,1087.3867,-52.458008,1108.5317C-51.358765,1114.4878,-51.04355,1119.9233,-50.77487,1124.719C-50.319824,1124.7577,-50.732513,1137.9844,-51.23352,1164.4178C-51.371063,1171.6821,-50.50363,1182.3827,-49.411835,1196.519L-16.852814,1200.1411C-4.310791,1203.571,6.839203,1207.987,17.076675,1212.3085C20.764389,1213.8654,26.16452,1214.4712,32.884415,1215.0953C58.436005,1217.4711,71.9669,1215.4072,73.288376,1209.0088C74.61424,1202.5911,72.578064,1197.3691,67.35623,1193.3795L29.781586,1176.1259C23.58487,1172.622,18.881836,1168.3558,15.095276,1163.7866C8.544571,1155.8809,2.6203003,1138.2113,-2.115158,1110.3024L4.9239044,1085.1539C7.3345795,1055.9261,8.443558,1029.8862,9.143967,1007.0552C10.080154,976.5407,9.775726,885.3961,7.111267,719.46356 Z"/>
</g>
<g style="fill:rgb(0,0,0); fill-opacity:1.0; stroke-linejoin: miter">
<path d="M-60.80356,470.6181L-70.99182,481.54562L-62.470673,495.4242L-64.25409,527.0161L-47.30728,700.3963L-28.561188,715.1426L-20.19513,694.85895L-36.130676,528.234L-52.11017,493.39948L-51.07025,477.1121L-60.743134,470.6587 Z"/>
</g>
<g style="fill:rgb(250,84,34); fill-opacity:0.29803923; stroke-linejoin: miter">
<path d="M-101.144714,427.65417L-60.483307,468.2884Q-40.72702,437.5551,-39.72931,436.21854Q-51.47711,451.51678,-68.776,449.05807Q-81.64285,447.3088,-101.09921,427.6995"/>
</g>
<g style="fill:rgb(255,197,171); fill-opacity:1.0; stroke-linejoin: miter">
<path d="M-46.305664,654.45233Q-48.78067,652.2898,-55.561737,654.5978Q-58.129333,655.32245,-68.97162,660.2347L-74.07272,661.9418L-85.1561,667.3074Q-87.961945,668.5492,-89.36304,668.7743Q-93.897675,676.3912,-97.642975,687.98474Q-99.797516,695.16406,-100.87335,708.52734L-82.57495,714.7032Q-79.02997,715.436,-77.05173,715.6411Q-69.84973,716.55304,-65.653046,712.29346Q-61.10504,708.2396,-54.326996,690.6974Q-47.51114,688.0042,-45.613922,686.19226Q-43.123657,684.0473,-43.18805,681.08484Q-43.4375,677.7475,-48.007416,676.5419Q-48.35382,675.9264,-68.36853,673.7267Q-60.33725,670.9726,-49.84323,662.61884Q-43.664307,657.2514,-46.279053,654.4772"/>
</g>
<g style="fill:rgb(0,0,0); fill-opacity:0.05882353; stroke-linejoin: miter">
<path d="M-140.63507,564.1011L-142.29776,637.1994Q-109.293335,651.4254,-97.71646,654.306L-137.27972,632.0888L-140.63507,564.1011"/>
</g>
<g style="fill:rgb(255,235,59); fill-opacity:0.99607843; stroke-linejoin: miter">
<path d="M-44.31842,726.087L-31.79419,724.47815L-19.270294,722.8693Q-18.426544,729.438,-17.582733,736.0062Q-30.10675,737.61536,-42.630554,739.22424Q-43.474487,732.6556,-44.31842,726.087"/>
</g>
<g style="fill:rgb(255,235,59); fill-opacity:0.99607843; stroke-linejoin: miter">
<path d="M-189.66504,444.22214L-189.66504,444.22214L-189.66504,444.2224L-189.66504,444.22214L-189.66504,444.22214L-189.66504,444.22214L-189.66504,444.2224Q-189.66504,444.22214,-189.66504,444.22214"/>
</g>
<g style="fill:rgb(255,255,255); fill-opacity:1.0; stroke-linejoin: miter">
<path d="M-51.89261,379.70108L-51.453796,379.2579Q-50.150116,377.8901,-48.762543,376.86926Q-48.297455,376.5416,-47.813416,376.29135L-47.32379,376.065L-46.822815,375.88684L-46.185364,375.74014Q-46.06244,375.70486,-45.431458,375.67654L-44.916626,375.69073L-44.392822,375.7439Q-43.863983,375.81885,-43.31958,375.95642Q-41.96283,376.28568,-39.40381,377.37234Q-41.451965,378.55307,-42.65097,379.05545Q-43.85846,379.53644,-44.11786,379.58682Q-44.618225,379.73288,-45.13794,379.83206Q-46.35489,380.05685,-47.87622,380.02502Q-48.116577,380.0329,-49.36331,379.9526Q-50.112488,379.90005,-51.89261,379.70108 Z"/>
</g>
<g style="fill:rgb(0,0,0); fill-opacity:1.0; stroke-linejoin: miter">
<path d="M-48.935516,376.96872L-48.948273,377.1192Q-49.048523,378.113,-48.913483,378.68655Q-48.808502,379.20407,-48.196228,380.01462Q-46.789917,380.11346,-45.925995,380.05182Q-45.21393,380.01938,-44.102905,379.6381L-43.62036,379.46408Q-43.457123,378.63492,-43.447052,378.33493Q-43.343628,377.47552,-43.856598,375.68314Q-44.924805,375.54184,-45.572815,375.5421Q-46.13263,375.54025,-46.63379,375.66147Q-46.959595,375.72,-47.63855,376.0779Q-48.120056,376.3455,-48.935516,376.96872 Z"/>
</g>
<g style="fill:rgb(254,164,130); fill-opacity:1.0; stroke-linejoin: miter">
<path d="M-78.4028,421.07355L-77.16141,421.32098Q-73.38428,422.09125,-70.09686,422.6254Q-67.92749,422.9704,-66.246826,423.07843Q-65.29837,423.1357,-64.51993,423.0916L-63.921967,423.03812Q-63.35977,422.96918,-62.907745,422.8461Q-61.861877,422.66827,-60.335175,421.35748Q-59.276398,422.11737,-58.50107,422.38147Q-57.57669,422.72522,-56.27585,422.661Q-55.69052,422.62637,-55.049286,422.50674Q-54.77527,422.491,-52.89206,421.97888Q-51.433838,421.61026,-45.90396,419.5257Q-51.200287,419.66486,-53.63748,419.64566Q-54.858063,419.63968,-55.954926,419.59528Q-56.28891,419.58652,-58.75479,419.43665Q-59.118378,419.41776,-59.475494,419.40802Q-60.154175,419.38254,-60.972748,419.41776Q-61.647827,419.43823,-62.873444,419.6164Q-63.436737,419.70358,-64.0358,419.81216Q-67.144135,420.39926,-67.90753,420.50943Q-68.59531,420.61807,-69.30798,420.704L-70.025696,420.7836Q-71.094086,420.91235,-73.75195,421.0134Q-76.05194,421.0745,-78.4028,421.07355 Z"/>
</g>
<g style="fill:rgb(255,0,0); fill-opacity:0.12156863; stroke-linejoin: miter">
<path d="M-72.80948,405.31122L-72.80917,405.31183L-62.040497,411.07904Q-57.408905,407.54434,-52.777008,404.00864Q-57.41632,406.0585,-62.05545,408.1087L-72.80948,405.31122 Z"/>
</g>
<g style="fill:rgb(0,0,0); fill-opacity:0.99607843; stroke-linejoin: miter">
<path d="M-53.731903,371.29123L-53.731903,371.29184Q-51.055878,369.8703,-49.608673,369.3018Q-49.02899,369.06915,-48.458466,368.88852L-47.89087,368.72354Q-47.325836,368.57306,-46.77356,368.49374Q-45.51233,368.31247,-44.08008,368.51926Q-43.848083,368.53467,-42.718475,368.78366Q-42.041534,368.9373,-40.48239,369.41043L-53.731903,371.29123"/>
</g>
<g style="fill:rgb(0,0,0); fill-opacity:0.99607843; stroke-linejoin: miter">
<path d="M-39.72238,406.71484L-39.72238,406.71613L-39.72238,406.71484L-39.72238,406.71613"/>
</g>
<g style="fill:rgb(255,255,255); fill-opacity:1.0; stroke-linejoin: miter">
<path d="M-75.983,381.0881L-76.502716,380.74368Q-78.05856,379.67123,-79.62552,378.95572Q-80.14761,378.73038,-80.67267,378.58368L-81.19821,378.46246L-81.72485,378.39005L-82.37897,378.37717Q-82.50644,378.368,-83.129974,378.4691L-83.63107,378.58804L-84.13284,378.747Q-84.635254,378.9277,-85.14017,379.17422Q-86.40088,379.77353,-88.68387,381.36038Q-86.4379,382.09824,-85.161285,382.3444Q-83.881195,382.56882,-83.61694,382.56473Q-83.09708,382.60568,-82.56833,382.59656Q-81.331055,382.5679,-79.84827,382.226Q-79.61154,382.18448,-78.40735,381.85147Q-77.68475,381.64682,-75.983,381.0881 Z"/>
</g>
<g style="fill:rgb(0,0,0); fill-opacity:1.0; stroke-linejoin: miter">
<path d="M-79.43588,379.01743L-79.39261,379.16193Q-79.09122,380.11444,-79.10632,380.70374Q-79.10318,381.2316,-79.53726,382.15015Q-80.89383,382.53452,-81.75192,382.6504Q-82.455475,382.7643,-83.621185,382.61826L-84.12894,382.5465Q-84.45834,381.768,-84.52933,381.47653Q-84.806366,380.65652,-84.6702,378.79678Q-83.65329,378.43976,-83.01901,378.30853Q-82.471344,378.19138,-81.9559,378.20844Q-81.6254,378.199,-80.88736,378.4105Q-80.36151,378.5745,-79.43588,379.01743 Z"/>
</g>
<g style="fill:rgb(0,0,0); fill-opacity:0.99607843; stroke-linejoin: miter">
<path d="M-75.90085,372.47958L-75.90085,372.48056Q-78.8107,371.63602,-80.343414,371.37503Q-80.95865,371.26547,-81.553925,371.20505L-82.14319,371.16006Q-82.72717,371.12823,-83.283905,371.16318Q-84.5556,371.2438,-85.91516,371.73865Q-86.13913,371.80093,-87.194,372.2756Q-87.82544,372.56464,-89.255035,373.34592L-75.90085,372.47958"/>
</g>
<g style="fill:rgb(60,70,79); fill-opacity:1.0; stroke-linejoin: miter">
<path d="M-192.14046,720.9115L-9.970715,720.912L172.19902,720.91254Q172.19902,1004.6583,172.19902,1288.4042Q-9.970715,1288.4047,-192.14046,1288.4052Q-192.14046,1004.6583,-192.14046,720.9115"/>
</g>
<g style="fill:rgb(34,43,50); fill-opacity:1.0; stroke-linejoin: miter">
<path d="M-248.94453,662.95557L-9.970707,662.95667L229.00311,662.95776Q229.00302,716.7729,229.00305,770.588Q-9.970737,770.589,-248.94453,770.58997Q-248.94453,716.77277,-248.94453,662.95557"/>
</g>
<g style="fill:rgb(34,43,50); fill-opacity:1.0; stroke-linejoin: miter">
<path d="M49.780964,558.2995L48.461464,560.4672Q43.815918,566.67975,36.164936,567.8996Q28.477156,569.0963,21.297997,564.42645Q14.622241,559.62823,12.976139,552.1739Q12.456259,549.77075,12.581944,547.3171L12.879903,544.8812Q13.344578,542.4482,14.519822,540.14795Q18.337046,533.19727,25.72102,531.07825Q33.104977,528.95917,40.688423,532.638Q48.0887,536.67255,50.65437,543.9133Q53.220016,551.1543,49.780964,558.2995"/>
</g>
<g style="fill:rgb(34,43,50); fill-opacity:1.0; stroke-linejoin: miter">
<path d="M35.13576,544.8502L59.519745,557.4029L83.90377,569.9556Q80.88183,575.826,77.85992,581.6963Q53.475624,569.1441,29.091337,556.59204Q32.11358,550.72107,35.13576,544.8502"/>
</g>
<g style="fill:rgb(34,43,50); fill-opacity:1.0; stroke-linejoin: miter">
<path d="M69.31435,562.8798L64.42578,562.8801L59.53721,562.8804Q59.537216,616.33295,59.53724,669.78564Q64.425804,669.78577,69.31438,669.786Q69.31436,616.33295,69.31435,562.8798"/>
</g>
<g style="fill:rgb(34,43,50); fill-opacity:1.0; stroke-linejoin: miter">
<path d="M82.29167,566.7467L104.62434,578.2435L126.957016,589.74036Q122.918564,597.5853,118.88008,605.43036Q96.547104,593.93414,74.21404,582.4381Q78.25285,574.5924,82.29167,566.7467"/>
</g>
<g style="fill:rgb(34,43,50); fill-opacity:1.0; stroke-linejoin: miter">
<path d="M-96.76065,810.43964L-9.970676,810.4407L76.81929,810.4418Q76.819275,1027.5536,76.819244,1244.6655Q-9.970737,1244.6664,-96.76071,1244.6672Q-96.76068,1027.5535,-96.76065,810.43964"/>
</g>
</g>
</svg>